<svg width="110" height="60" viewBox="0 0 110 60" fill="none" xmlns="http://www.w3.org/2000/svg">
<g clip-path="url(#clip0_503_291)">
<path d="M16.2541 48.3712C16.2541 51.6468 16.2541 54.9247 16.2541 58.2004C16.2541 59.3615 15.6444 59.9912 14.4941 59.9956C11.7105 60.0023 8.927 60.0023 6.14346 59.9979C4.90188 59.9979 4.23659 59.3325 4.22992 58.0642C4.22101 56.2377 4.23882 54.4112 4.24104 52.5869C4.24327 47.8867 4.23214 43.1887 4.25884 38.4884C4.26329 37.832 4.06749 37.6064 3.40887 37.5841C1.90473 37.535 0.215917 35.7844 0.195892 34.2593C0.162516 31.7094 0.164741 29.1572 0.173641 26.6072C0.175866 25.6649 0.625327 25.2206 1.502 25.2005C2.29412 25.1826 2.91491 25.7208 2.93271 26.596C2.97053 28.4203 2.92826 30.2468 2.92381 32.0733C2.91936 34.036 3.56685 34.6724 5.50265 34.6702C9.75695 34.6657 14.0113 34.6724 18.2678 34.6791C19.4871 34.6791 20.6775 34.5831 21.5898 33.6319C22.5911 32.5891 22.5466 31.1355 21.4007 30.3049C20.9512 29.9789 20.8622 29.6037 20.8177 29.1661C20.7665 28.6592 20.8066 28.1457 20.7821 27.6366C20.7287 26.5157 21.5141 26.1785 22.2618 26.1696C23.6257 26.1562 24.9941 26.1137 26.3559 26.174C28.0202 26.2477 29.0993 25.3032 30.0939 24.1734C31.4646 22.617 31.5447 20.6923 31.1219 18.8792C30.7147 17.1353 29.4976 15.8179 27.7109 15.1748C26.9722 14.9091 26.2157 14.755 25.4436 14.7573C24.9096 14.7595 24.8139 14.5139 24.8117 14.0829C24.805 12.6338 24.8473 11.1802 24.7649 9.73326C24.6693 8.05636 23.9061 6.77244 22.3686 5.95521C21.79 5.64707 21.058 5.52872 20.7176 4.8142C20.2904 3.91881 20.7265 3.11497 21.701 3.11274C23.4677 3.10604 25.2344 3.13283 26.9989 3.10604C28.9592 3.07701 30.7748 3.64863 32.5304 4.43014C35.5298 5.76318 37.9106 7.88666 39.7329 10.5818C41.3416 12.9598 42.2049 15.6526 42.5943 18.5063C42.8769 20.5829 42.5809 22.5791 42.176 24.6177C41.4973 28.0385 39.8597 30.9189 37.4967 33.3483C35.8502 35.0408 33.8498 36.2779 31.5224 37.0303C29.798 37.5863 28.0869 37.7225 26.3358 37.7359C23.2586 37.7583 20.1813 37.7493 17.1041 37.7114C16.4633 37.7024 16.2296 37.8342 16.2385 38.5375C16.2786 41.8132 16.2563 45.0911 16.2563 48.3667L16.2541 48.3712Z" fill="white"/>
<path d="M6.27249 26.1719C6.30586 25.8012 6.24801 25.3881 6.39487 25.0733C6.62627 24.5843 7.11578 24.3208 7.65647 24.4414C8.20161 24.562 8.74007 24.7853 8.73117 25.5132C8.72672 25.9151 8.73785 26.317 8.72227 26.7189C8.68667 27.6255 8.27281 28.0453 7.43619 28.0475C6.65297 28.0475 6.30364 27.6233 6.29919 26.6587C6.29919 26.4979 6.29919 26.3371 6.29919 26.1763C6.29029 26.1763 6.27916 26.1763 6.27026 26.1741L6.27249 26.1719Z" fill="white"/>
<path d="M8.74217 31.1937C8.70211 32.4195 8.52856 32.6786 7.62074 32.8483C6.9243 32.9778 6.31686 32.4865 6.30128 31.7698C6.29238 31.3679 6.29461 30.9659 6.30128 30.5618C6.31908 29.6843 6.67954 29.3203 7.51394 29.327C8.35056 29.3315 8.71546 29.6932 8.73994 30.5484C8.74661 30.7627 8.73994 30.9771 8.73994 31.1915L8.74217 31.1937Z" fill="white"/>
<path d="M17.2175 26.4999C17.2175 27.7235 16.8371 28.1299 15.6489 27.9446C15.5955 27.9357 15.5421 27.9401 15.4909 27.9245C14.8612 27.7481 14.5074 26.2409 14.8501 25.1892C15.0481 24.5841 15.9315 24.267 16.5856 24.5551C17.3933 24.9123 17.2064 25.6291 17.2175 26.4999Z" fill="white"/>
<path d="M17.2176 31.0909C17.2176 32.5044 16.7192 33.0402 15.6467 32.7812C15.1216 32.654 14.8123 32.3481 14.8101 31.7831C14.8101 31.4638 14.8056 31.1423 14.8101 30.823C14.819 29.711 15.1194 29.3381 16.0005 29.3448C16.9773 29.3515 17.2154 29.6463 17.2176 30.852C17.2176 30.9324 17.2176 31.0128 17.2176 31.0909Z" fill="white"/>
<path d="M12.8787 26.1987C12.8787 26.4466 12.9031 26.6118 12.8742 26.7659C12.8075 27.103 13.0812 27.5407 12.6183 27.764C12.0643 28.0319 11.4991 28.1034 10.9362 27.7818C10.6603 27.6233 10.4734 25.2386 10.7048 24.8947C11.0475 24.3856 11.9864 24.3186 12.5783 24.7451C13.1613 25.1693 12.7474 25.7789 12.8809 26.1987H12.8787Z" fill="white"/>
<path d="M12.8786 31.1088C12.8786 32.4999 12.6272 32.8661 11.6815 32.8415C11.0429 32.8259 10.638 32.4106 10.6335 31.7608C10.6313 31.3075 10.6313 30.852 10.6335 30.3987C10.638 29.6105 10.9183 29.3493 11.746 29.3649C12.6094 29.3783 12.8719 29.6172 12.8764 30.3898C12.8764 30.631 12.8764 30.8699 12.8764 31.111L12.8786 31.1088Z" fill="white"/>
<path d="M11.2232 22.6144C8.35956 22.6144 5.49369 22.5385 2.63672 22.6479C1.30168 22.6993 0.0801294 21.4846 0.0334033 20.2944C-0.00219758 19.3834 2.74697e-05 18.4702 2.74697e-05 17.5591C2.74697e-05 15.0628 0.00892769 12.5642 0.0178279 10.0678C0.022278 8.90669 0.469514 8.00684 1.47079 7.35037C1.91135 7.06233 2.34968 7.13601 2.7769 7.12708C3.41549 7.11368 3.65802 6.91272 3.63132 6.24286C3.58237 5.0103 3.61574 3.77328 3.62464 2.53849C3.64022 0.671794 4.27658 0.0264885 6.12783 0.0175569C7.94792 0.00862533 9.76579 0.0175569 11.5859 0.0175569C12.9765 0.0175569 14.3694 0.0309542 15.7601 -0.000306234C17.6514 -0.0404983 18.4101 0.781205 18.4368 2.69703C18.4524 3.85143 18.4569 5.0103 18.359 6.15801C18.2922 6.95961 18.5659 7.16057 19.3224 7.15388C21.2181 7.13378 22.1059 7.79248 22.5821 9.4024C22.6689 9.69491 22.6733 9.98295 22.6733 10.2755C22.6756 13.3367 22.68 16.398 22.6733 19.4593C22.6689 20.8035 22.0347 21.7882 20.9066 22.4849C20.6263 22.6591 20.3392 22.6099 20.0544 22.6122C17.1107 22.6189 14.1692 22.6166 11.2254 22.6166L11.2232 22.6144ZM11.2388 20.0131C11.2388 20.0131 11.2388 20.0176 11.2388 20.0198C13.673 20.0198 16.1072 20.0332 18.5436 20.0109C19.131 20.0064 19.7741 19.9126 19.7874 19.1132C19.8275 16.4829 19.8609 13.8503 19.8431 11.22C19.8342 10.0924 19.3847 9.71723 18.2455 9.71723C13.5907 9.715 8.93362 9.71723 4.27881 9.7217C3.17296 9.7217 2.63449 10.204 2.62114 11.3138C2.59222 13.7565 2.59667 16.1993 2.61002 18.6443C2.61447 19.5442 3.13513 20.0131 4.01625 20.0131C6.42376 20.0131 8.83127 20.0131 11.241 20.0131H11.2388ZM10.8716 7.13378C12.2356 7.13378 13.5973 7.11815 14.9613 7.14271C15.4352 7.15164 15.6422 7.00874 15.6244 6.50634C15.5977 5.72929 15.5977 4.95001 15.6333 4.17297C15.6533 3.70853 15.4797 3.57902 15.0347 3.58348C12.3624 3.60135 9.68791 3.60581 7.01562 3.58795C6.55059 3.58572 6.41041 3.75542 6.41708 4.19306C6.42821 4.97011 6.43043 5.74939 6.37926 6.5242C6.34588 7.04446 6.54391 7.15611 7.0223 7.14494C8.30393 7.11368 9.58779 7.13378 10.8716 7.13378Z" fill="#6BBD5B"/>
<path d="M11.2943 11.3164C13.2212 11.3164 15.1481 11.3097 17.0728 11.3209C17.9183 11.3254 18.3433 11.6759 18.3433 12.3168C18.3433 12.9933 17.8827 13.4042 17.0572 13.4064C13.2301 13.4109 9.40527 13.4064 5.57818 13.402C5.47138 13.402 5.36235 13.402 5.25777 13.3841C4.52795 13.2814 4.15637 12.8482 4.21199 12.1404C4.26762 11.4214 4.80608 11.3388 5.35345 11.3365C7.33375 11.3254 9.31404 11.3321 11.2943 11.3321C11.2943 11.3276 11.2943 11.3209 11.2943 11.3164Z" fill="#6BBD5B"/>
<path d="M11.2654 16.8092C9.39411 16.8092 7.52506 16.8092 5.65379 16.8092C4.58577 16.8092 4.24311 16.5792 4.21196 15.8692C4.17636 15.0743 4.38106 14.8934 5.53809 14.842C9.35628 14.6723 13.1789 14.7572 16.9993 14.7505C17.5445 14.7505 18.0206 14.918 18.2699 15.4248C18.4612 15.8133 18.3144 16.1661 18.054 16.5279C17.8048 16.874 17.5 16.8025 17.1996 16.8047C15.2215 16.8137 13.2457 16.8092 11.2676 16.8092H11.2654Z" fill="#6BBD5B"/>
<path d="M39.1543 59.473C33.2979 59.5222 28.2115 54.5026 28.276 48.6904C28.3361 43.3136 32.9998 37.8475 39.8975 38.1936C45.331 38.466 50.333 42.8559 50.2195 49.0343C50.1127 54.88 45.1085 59.4686 39.1543 59.473ZM43.749 48.744C43.8803 45.9283 41.6842 44.3519 39.0008 44.3519C36.6222 44.3519 34.7376 46.27 34.7109 48.6792C34.6819 51.3788 36.769 53.1406 39.1365 53.145C41.4305 53.1473 43.8447 51.7338 43.7468 48.7462L43.749 48.744Z" fill="white"/>
<path d="M96.5519 46.1049C97.6488 45.1425 98.6768 44.4392 99.4711 43.4589C100.279 42.4631 101.356 41.6994 102.337 40.8576C103.091 40.2078 103.852 39.5603 104.558 38.8636C105.479 37.9526 106.654 38.062 107.719 38.2675C109.513 38.6136 110.961 40.9693 109.057 42.6997C107.41 44.1936 105.788 45.7119 104.157 47.2191C103.67 47.6679 102.835 48.1056 102.809 48.5812C102.784 49.0166 103.625 49.5056 104.101 49.9544C105.686 51.4527 107.281 52.942 108.865 54.4425C110.899 56.3673 109.944 58.4349 107.991 59.2566C107.067 59.6452 106.053 59.7077 105.172 59.0088C103.414 57.611 101.921 55.9587 100.252 54.476C99.4734 53.7838 98.7369 53.0514 97.9581 52.3592C97.7601 52.1851 97.651 51.7072 97.2594 51.9573C96.919 52.1761 96.4985 52.3615 96.5252 52.9309C96.5852 54.1634 96.5763 55.4004 96.543 56.633C96.4829 58.819 93.8284 60.2458 91.8481 59.1562C90.8379 58.6002 90.2416 57.7584 90.2416 56.6218C90.2349 51.5487 90.2505 46.4756 90.2327 41.4047C90.2283 40.1922 90.6288 39.1785 91.7302 38.5533C92.8182 37.937 94.0064 37.9906 95.0944 38.5823C96.1447 39.1517 96.5029 40.1565 96.5385 41.2305C96.5897 42.7801 96.5519 44.332 96.5519 46.1049Z" fill="white"/>
<path d="M63.0514 37.9905C65.6859 38.1937 68.169 38.5152 70.0937 40.3238C71.0282 41.2036 71.135 42.6483 70.3295 43.5638C69.5508 44.448 67.9554 44.9906 66.6894 44.2024C65.3588 43.374 63.799 43.2199 62.2326 43.3628C61.841 43.3985 61.4004 43.5504 61.2892 44.0193C61.1601 44.5641 61.5117 44.9191 61.9433 45.1134C62.8934 45.5376 63.8791 45.8927 64.8559 46.2589C66.6159 46.9198 68.4494 47.4691 69.8912 48.6883C73.2021 51.4928 72.6748 56.4029 68.5985 58.5688C64.4888 60.7503 60.3724 60.344 56.4296 57.9949C55.7621 57.5975 55.2214 57.1554 54.9722 56.3582C54.6429 55.3043 54.9211 54.4871 55.6575 53.7368C56.4652 52.9129 57.491 52.9151 58.5568 53.0848C59.5536 53.2434 60.3836 53.815 61.3559 54.0584C62.306 54.2973 63.2561 54.3509 64.2151 54.2906C64.7669 54.2571 65.3833 54.17 65.5412 53.5158C65.7126 52.8124 65.203 52.473 64.6379 52.2475C63.3407 51.7317 62.0101 51.2896 60.7195 50.7648C58.7904 49.9789 56.908 49.1214 55.7132 47.3552C54.4382 45.4751 54.6251 43.0145 55.9668 41.188C57.7402 38.7698 60.3502 38.2473 63.0581 37.9927L63.0514 37.9905Z" fill="white"/>
<path d="M77.4518 55.3265C77.4585 51.7472 77.3873 44.2827 77.3539 44.1308C77.3495 43.5034 77.345 42.8737 77.3406 42.2463C77.3747 42.1078 77.4088 41.9873 77.4429 41.8845C77.7967 40.2322 78.6689 39.4529 81.0853 39.6427C82.3203 39.741 83.5752 41.0405 83.5841 42.4115C83.6108 47.1363 83.6464 51.8633 83.5596 56.5859C83.5329 58.0775 82.4271 59.2698 80.6403 59.4462C79.2185 59.5869 77.8012 58.6468 77.4274 57.4098C77.3806 57.2513 77.4518 55.4761 77.4541 55.3243L77.4518 55.3265Z" fill="white"/>
</g>
<defs>
<clipPath id="clip0_503_291">
<rect width="110" height="60" fill="white"/>
</clipPath>
</defs>
</svg>
